<?xml version="1.0" encoding="UTF-8"?>
<svg version="1.1" xmlns="http://www.w3.org/2000/svg" width="495" height="495">
<path d="M0 0 C10.88647412 2.43285055 21.82509869 4.54253939 32.78420639 6.61720657 C67.95436054 13.28110226 103.04252104 20.35372641 138.13278198 27.42393494 C148.85196888 29.58267102 159.57407162 31.72519038 170.30242729 33.8379097 C177.18777288 35.1941623 184.0704851 36.56318257 190.95117378 37.94286728 C194.89955893 38.73394476 198.84901617 39.51812629 202.80218506 40.28497314 C206.44912612 40.99253188 210.09184332 41.71875175 213.73217773 42.45952797 C215.66072671 42.84691812 217.59325515 43.21433525 219.52587891 43.58085632 C227.91078605 45.31350328 235.64976026 47.95106064 240.75 55.25 C243.9798763 61.30601807 244.0384236 67.58425394 242.859375 74.28125 C241.531784 78.57039017 239.62563321 80.67623953 236.17382812 83.5 C232.69642617 86.91922907 231.65504152 89.15263055 231.34179688 94.01953125 C231.34305175 96.30507895 231.38757079 98.59089409 231.46875 100.875 C231.48572937 102.68919434 231.48572937 102.68919434 231.50305176 104.54003906 C231.54764208 108.38250748 231.64798798 112.22116993 231.75 116.0625 C231.7901487 118.67572716 231.826647 121.28901312 231.859375 123.90234375 C231.9473213 130.29034915 232.08099021 136.67615265 232.25 143.0625 C233.19230469 143.51625 234.13460938 143.97 235.10546875 144.4375 C239.33205608 146.62167432 241.7327224 148.51066719 243.25 153.0625 C243.82959421 158.9743609 242.69074266 163.28546892 239.25 168.0625 C235.52116324 172.32461225 231.51119846 176.33550426 227.25 180.0625 C226.59 180.0625 225.93 180.0625 225.25 180.0625 C225.25 180.7225 225.25 181.3825 225.25 182.0625 C223.81640625 183.47265625 223.81640625 183.47265625 221.8125 185.125 C217.02948698 189.19224522 212.64946343 193.5879604 208.25 198.0625 C199.82652108 206.62972429 199.82652108 206.62972429 195.3671875 210.44140625 C189.55463698 215.43409033 184.28527736 220.99898619 178.93359375 226.47485352 C177.54600999 227.89244803 176.15201582 229.30375905 174.7578125 230.71484375 C173.93941895 231.55007568 173.12102539 232.38530762 172.27783203 233.24584961 C170.25 235.0625 170.25 235.0625 168.25 235.0625 C167.92 236.0525 167.59 237.0425 167.25 238.0625 C165.73632812 239.55273438 165.73632812 239.55273438 163.78125 241.15625 C158.82645861 245.36031542 154.30548006 249.93389827 149.75 254.5625 C140.79329358 263.66297378 140.79329358 263.66297378 136.5 267.3125 C130.23655461 272.68919639 124.54960269 278.69683186 118.75 284.5625 C105.2361444 298.230297 105.2361444 298.230297 99.02539062 303.50976562 C95.76848465 306.35821475 92.77808663 309.47510114 89.75 312.5625 C84.74826143 317.60734639 79.7573386 322.56404886 74.25 327.0625 C73.54875 327.66449219 72.8475 328.26648438 72.125 328.88671875 C63.77065391 335.80516161 54.62296351 339.74944348 43.6640625 338.8503418 C32.02037383 337.31350211 20.65384946 334.5326975 9.22677612 331.86856079 C2.88982921 330.39167475 -3.4514647 328.93373721 -9.79296875 327.4765625 C-11.06003159 327.18515884 -12.32709442 326.89375519 -13.6325531 326.59352112 C-27.06037351 323.51535275 -40.5257127 320.62251147 -54.00488281 317.77905273 C-55.22161934 317.52189987 -55.22161934 317.52189987 -56.4629364 317.259552 C-57.94014219 316.94784099 -59.41765886 316.63759696 -60.89558411 316.32931519 C-62.84942535 315.91814533 -64.79977543 315.49049576 -66.75 315.0625 C-67.4821875 314.90958496 -68.214375 314.75666992 -68.96875 314.59912109 C-70.9147315 314.16419325 -72.83568421 313.62053339 -74.75 313.0625 C-77.67201847 308.21286726 -76.97723003 302.20005791 -76.875 296.6875 C-76.86597656 295.76066406 -76.85695312 294.83382813 -76.84765625 293.87890625 C-76.82422937 291.60649923 -76.79142748 289.3346382 -76.75 287.0625 C-73.21510483 285.88420161 -71.7166895 286.30089294 -68.10913086 287.09130859 C-66.94218689 287.34291245 -65.77524292 287.5945163 -64.57293701 287.85374451 C-62.66318085 288.27805504 -62.66318085 288.27805504 -60.71484375 288.7109375 C-59.37517178 289.00277631 -58.0353449 289.29390482 -56.69537354 289.58436584 C-53.84102984 290.20458419 -50.9878026 290.82962842 -48.13534546 291.45846558 C-43.69081293 292.43807237 -39.2437234 293.40567979 -34.79614258 294.37133789 C-22.64418927 297.01216912 -10.49751852 299.67690696 1.64735413 302.35009766 C5.56181669 303.21007305 9.47761083 304.06385676 13.39376831 304.91607666 C16.01747875 305.49014927 18.63872402 306.07463982 21.26000977 306.65966797 C22.82557057 307.00149463 24.39123722 307.34283702 25.95703125 307.68359375 C26.64875427 307.84118668 27.34047729 307.9987796 28.05316162 308.16114807 C31.70194733 308.94247941 33.51839234 308.99540191 37.25 308.0625 C37.58 284.9625 37.91 261.8625 38.25 238.0625 C35.61 237.7325 32.97 237.4025 30.25 237.0625 C28.44811643 236.72007341 26.65112588 236.35013106 24.86206055 235.94604492 C23.86953781 235.72411469 22.87701508 235.50218445 21.85441589 235.27352905 C20.26165581 234.9119017 20.26165581 234.9119017 18.63671875 234.54296875 C16.28064681 234.01581801 13.92452468 233.48889152 11.56835938 232.9621582 C10.32723389 232.68344879 9.0861084 232.40473938 7.80737305 232.11758423 C-22.78795868 225.25843744 -53.47435908 218.90113119 -84.22357178 212.76751709 C-87.70916613 212.07066367 -91.19383852 211.36938159 -94.67822266 210.66650391 C-116.35497851 206.29580514 -138.02723947 201.9973847 -159.875 198.5625 C-160.62625153 198.44416809 -161.37750305 198.32583618 -162.15151978 198.20391846 C-170.08023983 196.96621181 -178.01958962 195.86968774 -185.98828125 194.921875 C-186.6917569 194.83812622 -187.39523254 194.75437744 -188.12002563 194.66809082 C-198.66916552 193.45281043 -207.85630382 193.47133988 -216.92578125 199.51171875 C-223.30814555 204.93741174 -225.59742771 212.77140137 -226.5 220.8125 C-227.23488012 231.62191845 -224.45172199 241.65679443 -217.75 250.25 C-208.31901977 260.11054869 -195.08091314 261.92031318 -182.28515625 264.66796875 C-181.22055176 264.89790527 -180.15594727 265.1278418 -179.05908203 265.36474609 C-176.7467026 265.85233503 -174.42941974 266.31698221 -172.10888672 266.76416016 C-170.3514917 267.1226001 -170.3514917 267.1226001 -168.55859375 267.48828125 C-167.49310303 267.69493408 -166.4276123 267.90158691 -165.32983398 268.11450195 C-162.75 269.0625 -162.75 269.0625 -161.40795898 270.97192383 C-159.73746121 276.2797058 -159.78828105 282.89516213 -161.40234375 288.2109375 C-162.3125 289.8125 -162.3125 289.8125 -164.75 292.0625 C-170.1323196 293.32191594 -174.62461519 292.78936124 -179.921875 291.55078125 C-180.68493958 291.38128464 -181.44800415 291.21178802 -182.23419189 291.03715515 C-183.84233826 290.67715838 -185.44916751 290.31123189 -187.0546875 289.93969727 C-189.47608526 289.38052264 -191.90138805 288.84210969 -194.328125 288.30664062 C-215.35005456 283.59399338 -231.65480133 276.74087876 -243.75 258.0625 C-245.70447398 254.14883109 -247.3103252 250.19072411 -248.75 246.0625 C-249.10964844 245.03253906 -249.46929687 244.00257813 -249.83984375 242.94140625 C-254.56117124 228.00742187 -251.85688136 208.84208025 -244.75 195.0625 C-239.13480278 184.93168726 -231.8697254 176.48981787 -223.0390625 169.03125 C-220.08274935 166.4886189 -217.2320667 163.84057899 -214.375 161.1875 C-207.62182012 154.93037683 -200.82604766 148.72506295 -193.875 142.6875 C-191.02747651 140.21238904 -188.24307512 137.6775726 -185.47607422 135.11279297 C-180.30937976 130.3265089 -175.02130736 125.79228753 -169.53125 121.375 C-166.50980516 118.86278744 -163.62561617 116.23845912 -160.75 113.5625 C-156.11754339 109.25250895 -151.32877484 105.21188604 -146.3984375 101.2421875 C-143.77724881 99.08492601 -141.25845719 96.84939 -138.75 94.5625 C-134.45008209 90.64358748 -129.99080453 86.97079131 -125.46875 83.3125 C-122.82852271 81.12748431 -120.2827028 78.87078609 -117.75 76.5625 C-113.53470644 72.72499218 -109.17951669 69.10983596 -104.75 65.5234375 C-99.5780039 61.28078445 -94.51867616 56.90537069 -89.45898438 52.52978516 C-88.24827723 51.49030659 -87.03003519 50.45957469 -85.80664062 49.43505859 C-85.17435547 48.90348145 -84.54207031 48.3719043 -83.890625 47.82421875 C-83.31344727 47.34299561 -82.73626953 46.86177246 -82.14160156 46.3659668 C-80.62012297 45.09196786 -80.62012297 45.09196786 -79.75 43.0625 C-78.68652344 42.43214844 -78.68652344 42.43214844 -77.6015625 41.7890625 C-74.10205906 39.67018507 -71.1910269 37.13080917 -68.125 34.4375 C-66.87455125 33.3518809 -65.6232405 32.26725394 -64.37109375 31.18359375 C-63.44852783 30.38477783 -63.44852783 30.38477783 -62.50732422 29.56982422 C-59.23414915 26.76229672 -55.87704552 24.05892677 -52.52734375 21.34375 C-49.96071041 19.23557297 -47.43447592 17.0887993 -44.91430664 14.92578125 C-29.85940605 2.02852154 -20.09776535 -4.60551243 0 0 Z M-19.9375 25.8125 C-20.85917969 26.63234375 -21.78085938 27.4521875 -22.73046875 28.296875 C-23.4582251 28.96686523 -23.4582251 28.96686523 -24.20068359 29.65039062 C-26.98901247 32.19178587 -29.87909703 34.61537101 -32.75 37.0625 C-33.94928954 38.09496986 -35.14850914 39.12752097 -36.34765625 40.16015625 C-39.25700951 42.65400355 -42.20943514 45.08834272 -45.1875 47.5 C-51.52107778 52.64661152 -57.66003201 58.01058597 -63.81054688 63.37304688 C-66.95156197 66.10917785 -70.10117793 68.83536205 -73.25 71.5625 C-74.49350546 72.64060669 -75.73699501 73.71873173 -76.98046875 74.796875 C-79.54332388 77.01823887 -82.10872708 79.23661528 -84.67578125 81.453125 C-90.16125465 86.19294684 -95.63764063 90.93300711 -101 95.8125 C-105.21953333 99.64081832 -109.60269142 103.22984587 -114.03125 106.8125 C-117.52908151 109.70725711 -120.86785404 112.75839539 -124.22265625 115.81640625 C-126.81962393 118.12437598 -129.48404013 120.31805863 -132.1875 122.5 C-136.96284402 126.36191675 -141.48667685 130.43924224 -146.00390625 134.59765625 C-148.66875166 136.98957297 -151.39831825 139.25504884 -154.1875 141.5 C-158.18225056 144.72193964 -161.99545383 148.06913965 -165.75 151.5625 C-171.21950486 156.64954677 -176.93762971 161.3706964 -182.75 166.0625 C-185.1230246 168.02623987 -187.44725106 170.01561206 -189.75 172.0625 C-189.75 172.3925 -189.75 172.7225 -189.75 173.0625 C-188.85990738 173.1687973 -187.96981476 173.2750946 -187.05274963 173.38461304 C-161.64405688 176.4780555 -136.66549781 180.95024298 -111.59767532 186.0919838 C-107.62756363 186.90439734 -103.65569898 187.70805891 -99.68382549 188.51180744 C-87.36752326 191.00434918 -75.05732959 193.52606194 -62.75 196.0625 C-61.64275322 196.29050922 -61.64275322 196.29050922 -60.51313782 196.52312469 C-51.94228282 198.28829511 -43.37479408 200.06874958 -34.8125 201.875 C-33.83361816 202.08138092 -32.85473633 202.28776184 -31.84619141 202.50039673 C-20.19233504 204.96566349 -8.56835002 207.54934367 3.04100609 210.21543312 C7.12765061 211.1516703 11.21663634 212.07765348 15.30552387 213.00403881 C19.86219665 214.03854025 24.41075384 215.10482631 28.95874023 216.17700195 C31.33812577 216.71937344 33.71775284 217.26068674 36.09765625 217.80078125 C37.70025803 218.19033997 37.70025803 218.19033997 39.3352356 218.58776855 C47.00071833 220.29024559 54.66292525 220.8085995 61.64637756 216.62788391 C63.99055513 214.9018597 66.10531551 213.0316784 68.25 211.0625 C69.23355469 210.18464844 70.21710938 209.30679688 71.23046875 208.40234375 C76.1272433 204.00036258 80.89214154 199.48404202 85.5012207 194.78051758 C87.25781809 193.05481943 89.07466313 191.44532388 90.94140625 189.83984375 C95.21148617 186.12515778 99.33238493 182.27018357 103.4375 178.375 C108.60151527 173.4949943 113.77394636 168.62607646 119 163.8125 C119.52327881 163.33047119 120.04655762 162.84844238 120.58569336 162.35180664 C122.65379547 160.44830398 124.72339987 158.54643886 126.79296875 156.64453125 C128.36271292 155.20131558 129.93160536 153.75718211 131.5 152.3125 C132.01973389 151.83401611 132.53946777 151.35553223 133.07495117 150.86254883 C136.3053445 147.88075934 139.51264903 144.87582206 142.70703125 141.85546875 C143.47047852 141.13391602 144.23392578 140.41236328 145.02050781 139.66894531 C146.52035343 138.24961974 148.01847166 136.82846598 149.51464844 135.40527344 C150.5457373 134.42929199 150.5457373 134.42929199 151.59765625 133.43359375 C152.20617432 132.85536865 152.81469238 132.27714355 153.44165039 131.68139648 C155.25 130.0625 155.25 130.0625 157.47827148 128.47680664 C158.3552771 127.77672485 158.3552771 127.77672485 159.25 127.0625 C159.25 126.4025 159.25 125.7425 159.25 125.0625 C159.91 125.0625 160.57 125.0625 161.25 125.0625 C161.25 124.4025 161.25 123.7425 161.25 123.0625 C161.83612061 122.79856445 162.42224121 122.53462891 163.02612305 122.26269531 C165.34058671 121.01361162 166.93681544 119.67488667 168.83203125 117.859375 C169.50951416 117.21540771 170.18699707 116.57144043 170.88500977 115.90795898 C171.96286743 114.87070679 171.96286743 114.87070679 173.0625 113.8125 C174.58827211 112.3603938 176.11431925 110.90857653 177.640625 109.45703125 C178.79401367 108.35609131 178.79401367 108.35609131 179.97070312 107.23291016 C183.39906337 103.96832976 186.85218681 100.73065419 190.3125 97.5 C190.93850098 96.91532959 191.56450195 96.33065918 192.20947266 95.72827148 C195.81992484 92.366129 199.47240709 89.06740381 203.2109375 85.84765625 C206.03278492 83.37718829 208.79768827 80.84646417 211.5625 78.3125 C212.07901123 77.83981689 212.59552246 77.36713379 213.12768555 76.88012695 C214.50700489 75.61323857 215.87882595 74.3381997 217.25 73.0625 C217.88292969 72.54171875 218.51585937 72.0209375 219.16796875 71.484375 C219.70357422 70.78054687 219.70357422 70.78054687 220.25 70.0625 C219.85150148 67.9890652 219.85150148 67.9890652 219.25 66.0625 C194.22332819 60.35030754 169.12294055 55.13912244 143.92447281 50.24373627 C141.01571042 49.67840625 138.10723838 49.11160197 135.19882202 48.54449463 C103.75447909 42.41643949 72.28399008 36.42682457 40.79320908 30.5422287 C37.57264277 29.93939854 34.3526186 29.33374653 31.13272095 28.72735596 C26.07016401 27.77452299 21.00609736 26.83016643 15.9407196 25.89244843 C14.08168774 25.54709101 12.22314855 25.19906901 10.36515808 24.84815216 C7.81681393 24.36749812 5.26677882 23.89708762 2.71606445 23.42919922 C1.62055377 23.21908423 1.62055377 23.21908423 0.50291157 23.0047245 C-10.48557433 20.98771754 -10.48557433 20.98771754 -19.9375 25.8125 Z M210.25 106.0625 C192.41304576 122.3011633 192.41304576 122.3011633 175.17578125 139.16796875 C173.32326126 140.99042756 171.41377559 142.6885245 169.4375 144.375 C165.29764512 147.91990567 161.51029698 151.77401977 157.68359375 155.6484375 C154.27234175 159.0856635 150.75818033 162.32799187 147.06640625 165.46484375 C144.47727648 167.74216434 142.08760538 170.19837907 139.6953125 172.6796875 C138.25 174.0625 138.25 174.0625 136.25 175.0625 C136.25 175.7225 136.25 176.3825 136.25 177.0625 C135.71632813 177.26746094 135.18265625 177.47242188 134.6328125 177.68359375 C131.25062566 179.64082646 128.81962512 182.3221965 126.125 185.125 C120.48986486 190.94256757 120.48986486 190.94256757 118.25 192.0625 C118.25 192.7225 118.25 193.3825 118.25 194.0625 C117.40695312 194.41248047 117.40695312 194.41248047 116.546875 194.76953125 C113.68265858 196.38187076 111.77747979 198.3818562 109.5 200.75 C106.48286116 203.83340104 103.46858282 206.82391526 100.1875 209.625 C97.23516834 212.14962969 94.47829407 214.79689592 91.75 217.5625 C88.37998355 220.97291048 84.9300689 224.20059376 81.2734375 227.30078125 C79.84333828 228.54590624 78.45584264 229.84077422 77.1015625 231.16796875 C71.86619919 236.21045025 67.39054992 238.63140858 60.25 240.0625 C61.09188612 242.00979537 61.09188612 242.00979537 62.25 243.0625 C61.26 243.0625 60.27 243.0625 59.25 243.0625 C59.2246453 250.9462007 59.20713111 258.82989088 59.19506836 266.71362305 C59.19060448 269.39560101 59.18364641 272.07755529 59.17456055 274.75952148 C59.16243147 278.61442746 59.15675713 282.46929718 59.15234375 286.32421875 C59.14460182 288.12290657 59.14460182 288.12290657 59.13670349 289.95793152 C59.13662796 291.07871597 59.13655243 292.19950043 59.13647461 293.35424805 C59.134254 294.33797897 59.13203339 295.3217099 59.12974548 296.33525085 C59.24773955 299.0112352 59.65051667 301.45584338 60.25 304.0625 C63.87125195 301.03247286 67.37881539 297.99467419 70.6875 294.625 C73.03881923 292.23197223 75.44819842 289.99010664 78 287.8125 C82.52770983 283.92274537 86.66155519 279.68255992 90.83203125 275.41796875 C93.25 273.0625 93.25 273.0625 96.25 271.0625 C96.25 270.4025 96.25 269.7425 96.25 269.0625 C96.8265332 268.81266357 97.40306641 268.56282715 97.99707031 268.30541992 C100.56463351 266.88891968 102.24989768 265.27328033 104.296875 263.17578125 C105.4415625 262.0146582 105.4415625 262.0146582 106.609375 260.83007812 C107.79273438 259.61481445 107.79273438 259.61481445 109 258.375 C114.0048831 253.25750703 119.02969939 248.28578725 124.46386719 243.6237793 C126.92980934 241.46827081 129.21453458 239.15694517 131.5 236.8125 C133.77688017 234.47761014 135.90962763 232.31025404 138.546875 230.390625 C139.38992188 229.73320312 139.38992188 229.73320312 140.25 229.0625 C140.25 228.4025 140.25 227.7425 140.25 227.0625 C140.84006836 226.79912842 141.43013672 226.53575684 142.03808594 226.2644043 C144.34572815 225.01048348 145.81727394 223.71054739 147.640625 221.83203125 C148.26372559 221.1973291 148.88682617 220.56262695 149.52880859 219.90869141 C150.17930176 219.23757324 150.82979492 218.56645508 151.5 217.875 C156.0009446 213.29639712 160.49177963 208.82600136 165.40625 204.6875 C168.55216872 201.91482587 171.44432078 198.88715286 174.3671875 195.8828125 C176.25 194.0625 176.25 194.0625 178.25 193.0625 C178.25 192.4025 178.25 191.7425 178.25 191.0625 C178.91 191.0625 179.57 191.0625 180.25 191.0625 C180.25 190.4025 180.25 189.7425 180.25 189.0625 C180.78109375 188.86011719 181.3121875 188.65773438 181.859375 188.44921875 C185.29216243 186.45797767 187.75900013 183.71785732 190.5 180.875 C194.65134902 176.64007845 198.80957796 172.52215548 203.37109375 168.72265625 C203.99113281 168.17480469 204.61117187 167.62695312 205.25 167.0625 C206.00458496 166.50067017 206.00458496 166.50067017 206.77441406 165.92749023 C209.39901004 163.74773443 211.00365643 162.07350238 211.82495117 158.70288086 C212.07521685 155.78825643 212.13256631 152.92540932 212.125 150 C212.15484985 148.39137085 212.15484985 148.39137085 212.18530273 146.75024414 C212.24071703 143.18713061 212.24860071 139.62602598 212.25 136.0625 C212.25621394 134.7278607 212.26323006 133.39322492 212.27099609 132.05859375 C212.31752994 123.72623626 212.3083685 115.39482771 212.25 107.0625 C211.26 106.5675 211.26 106.5675 210.25 106.0625 Z " fill="#5D93A2" transform="translate(251.75,76.9375)"/>
<path d="M0 0 C1.89733803 0.39084407 3.79470296 0.7815576 5.6920929 1.17214966 C10.73867568 2.21193794 15.78453976 3.25517065 20.83014679 4.29968262 C23.95353815 4.94620659 27.07706952 5.59205065 30.20062256 6.23779297 C55.2422001 11.41664576 80.27542733 16.63023444 105.26171875 22.0703125 C106.37253815 22.31102478 107.48335754 22.55173706 108.62783813 22.79974365 C111.70739711 23.46845518 114.78559974 24.14301886 117.86328125 24.8203125 C118.72262772 25.00699493 119.58197418 25.19367737 120.46736145 25.38601685 C136.32049499 28.91078205 136.32049499 28.91078205 140.26171875 32.3828125 C141.94049402 35.66405508 142.24320922 37.43136966 141.63671875 41.0703125 C139.83678101 43.77021912 138.55294575 45.612199 135.63671875 47.0703125 C128.40798888 46.91071896 121.33652528 45.55928366 114.29296875 44.03125 C112.85848389 43.7284613 112.85848389 43.7284613 111.39501953 43.41955566 C109.35790352 42.98894377 107.32137287 42.55555447 105.28540039 42.11956787 C99.94675626 40.97635624 94.6039083 39.85306681 89.26171875 38.7265625 C88.19449585 38.50088593 87.12727295 38.27520935 86.02770996 38.04269409 C76.07752098 35.94197843 66.11132015 33.92644865 56.13671875 31.9453125 C55.38366455 31.79551941 54.63061035 31.64572632 53.85473633 31.49139404 C49.78261184 30.68158377 45.7099748 29.87441544 41.63671875 29.0703125 C41.87972466 30.36296524 41.87972466 30.36296524 42.12763977 31.68173218 C42.61767194 34.94353127 42.77011366 37.9924727 42.78198242 41.28759766 C42.78836227 42.49549957 42.79474213 43.70340149 42.80131531 44.94790649 C42.80242813 46.2386911 42.80354095 47.52947571 42.8046875 48.859375 C42.80790435 50.20885249 42.81126874 51.55832963 42.81477356 52.9078064 C42.82074125 55.72695729 42.8226157 58.54607762 42.82202148 61.36523438 C42.82191956 64.9743778 42.83561363 68.58332585 42.85279369 72.19242287 C42.86391469 74.97540181 42.86594073 77.75833335 42.86541176 80.54133224 C42.86716173 82.5177735 42.87799394 84.49419997 42.88896179 86.47061157 C42.88588516 87.67220917 42.88280853 88.87380676 42.87963867 90.11181641 C42.88106369 91.16849518 42.88248871 92.22517395 42.88395691 93.31387329 C42.63074435 96.13692063 42.20369941 97.72770405 40.63671875 100.0703125 C36.8470007 102.5967912 35.1340076 102.63012147 30.63671875 102.0703125 C28.07490885 100.58278626 26.02885807 98.66567769 23.88671875 96.6328125 C22.67161134 95.53400682 21.45545128 94.43636418 20.23828125 93.33984375 C19.33770996 92.51540771 19.33770996 92.51540771 18.41894531 91.67431641 C15.77358902 89.29349574 13.02721466 87.06057857 10.26171875 84.8203125 C9.36710937 84.09328125 8.4725 83.36625 7.55078125 82.6171875 C6.91914063 82.10671875 6.2875 81.59625 5.63671875 81.0703125 C0.36033841 82.91350103 -4.09898919 85.92844347 -8.74804688 88.96875 C-12.71385976 91.44889288 -15.54888533 92.95769772 -20.36328125 92.0703125 C-23.0052948 90.48480225 -23.0052948 90.48480225 -25.36328125 88.0703125 C-25.96455383 84.81793213 -25.96455383 84.81793213 -25.9309082 80.91503906 C-25.9320034 79.84614693 -25.9320034 79.84614693 -25.93312073 78.75566101 C-25.9296447 76.40663807 -25.89078789 74.05961275 -25.8515625 71.7109375 C-25.8422343 70.07998742 -25.83511822 68.44902331 -25.8301239 66.8180542 C-25.81105427 62.53018351 -25.76195471 58.24316282 -25.706604 53.95562744 C-25.6554102 49.57860818 -25.63260964 45.20145125 -25.60742188 40.82421875 C-25.55383509 32.23919373 -25.4685238 23.65485892 -25.36328125 15.0703125 C-26.05542725 14.94914062 -26.74757324 14.82796875 -27.46069336 14.703125 C-28.3656958 14.53554688 -29.27069824 14.36796875 -30.203125 14.1953125 C-31.101521 14.03289062 -31.99991699 13.87046875 -32.92553711 13.703125 C-36.02611818 12.89824707 -37.50445121 11.65651082 -39.36328125 9.0703125 C-40.77328789 6.25029923 -40.60876576 4.20023995 -40.36328125 1.0703125 C-39.02286064 -2.20627122 -37.97792156 -3.56720732 -34.92578125 -5.3671875 C-24.01780356 -7.08949977 -10.77947564 -2.22940471 0 0 Z " fill="#408798" transform="translate(125.36328125,300.9296875)"/>
<path d="" fill="#3E7C8B" transform="translate(0,0)"/>
<path d="M0 0 C2 1 2 1 2 1 Z " fill="#3F7C8A" transform="translate(186,312)"/>
<path d="" fill="#3C7B8A" transform="translate(0,0)"/>
<path d="" fill="#3C7B8A" transform="translate(0,0)"/>
<path d="" fill="#3C7A8A" transform="translate(0,0)"/>
<path d="" fill="#3C7A8A" transform="translate(0,0)"/>
<path d="" fill="#3C7A8B" transform="translate(0,0)"/>
<path d="" fill="#3D7B8A" transform="translate(0,0)"/>
<path d="" fill="#3D7B8A" transform="translate(0,0)"/>
<path d="" fill="#3F7C8A" transform="translate(0,0)"/>
<path d="" fill="#427E8D" transform="translate(0,0)"/>
<path d="" fill="#3E7C8B" transform="translate(0,0)"/>
<path d="" fill="#427D8C" transform="translate(0,0)"/>
<path d="" fill="#437E8C" transform="translate(0,0)"/>
<path d="" fill="#417D8B" transform="translate(0,0)"/>
<path d="" fill="#417D8B" transform="translate(0,0)"/>
<path d="" fill="#437E8C" transform="translate(0,0)"/>
<path d="" fill="#49818F" transform="translate(0,0)"/>
<path d="" fill="#47808D" transform="translate(0,0)"/>
<path d="" fill="#467F8D" transform="translate(0,0)"/>
<path d="" fill="#477F8D" transform="translate(0,0)"/>
<path d="" fill="#48808D" transform="translate(0,0)"/>
<path d="" fill="#477F8D" transform="translate(0,0)"/>
<path d="" fill="#47808E" transform="translate(0,0)"/>
<path d="" fill="#508492" transform="translate(0,0)"/>
<path d="" fill="#4C828F" transform="translate(0,0)"/>
<path d="" fill="#48828E" transform="translate(0,0)"/>
<path d="" fill="#49828F" transform="translate(0,0)"/>
<path d="" fill="#548591" transform="translate(0,0)"/>
<path d="" fill="#588693" transform="translate(0,0)"/>
<path d="" fill="#598793" transform="translate(0,0)"/>
<path d="" fill="#4D8390" transform="translate(0,0)"/>
<path d="" fill="#588693" transform="translate(0,0)"/>
<path d="" fill="#4E8290" transform="translate(0,0)"/>
<path d="" fill="#518591" transform="translate(0,0)"/>
<path d="" fill="#538592" transform="translate(0,0)"/>
<path d="" fill="#638C98" transform="translate(0,0)"/>
<path d="" fill="#618B97" transform="translate(0,0)"/>
<path d="" fill="#618C97" transform="translate(0,0)"/>
<path d="" fill="#678E98" transform="translate(0,0)"/>
<path d="" fill="#678E98" transform="translate(0,0)"/>
</svg>
